<svg aria-hidden="true" style="position: absolute; width: 0; height: 0; overflow: hidden;" version="1.1" xmlns="http://www.w3.org/2000/svg" xmlns:xlink="http://www.w3.org/1999/xlink">
<defs>
<symbol id="icon-star" viewBox="0 0 34 32">
<path fill="#ffc531" style="fill: var(--color1, #ffc531); stroke: var(--color1, #ffc531)" stroke="#ffc531" stroke-linejoin="miter" stroke-linecap="butt" stroke-miterlimit="4" stroke-width="2.7429" d="M20.319 9.43c0.364 0.689 1.027 1.171 1.795 1.304l8.685 1.5-6.143 6.326c-0.543 0.559-0.796 1.338-0.685 2.109l1.254 8.726-7.911-3.888-0.268-0.114c-0.544-0.193-1.139-0.193-1.683 0l-0.268 0.114-7.913 3.888 1.257-8.726c0.111-0.771-0.142-1.55-0.685-2.109l-6.145-6.326 8.688-1.5c0.768-0.133 1.431-0.614 1.795-1.304l4.114-7.797 4.114 7.797z"></path>
</symbol>
<symbol id="icon-eye-off" viewBox="0 0 32 32">
<path stroke-linejoin="round" stroke-linecap="round" stroke-miterlimit="4" stroke-width="3.2" d="M23.92 23.92c-2.279 1.737-5.054 2.7-7.92 2.747-9.333 0-14.667-10.667-14.667-10.667 1.659-3.091 3.959-5.791 6.747-7.92M13.2 5.653c0.918-0.215 1.857-0.322 2.8-0.32 9.333 0 14.667 10.667 14.667 10.667-0.809 1.514-1.775 2.94-2.88 4.253M18.827 18.827c-0.366 0.393-0.808 0.708-1.298 0.927s-1.020 0.336-1.557 0.346c-0.537 0.009-1.071-0.089-1.569-0.291s-0.95-0.501-1.33-0.88c-0.38-0.38-0.679-0.832-0.88-1.33s-0.3-1.032-0.29-1.569c0.009-0.537 0.127-1.067 0.346-1.558s0.534-0.932 0.927-1.298"></path>
<path stroke-linejoin="round" stroke-linecap="round" stroke-miterlimit="4" stroke-width="3.2" d="M1.333 1.333l29.333 29.333"></path>
</symbol>
<symbol id="icon-eye" viewBox="0 0 32 32">
<path stroke-linejoin="round" stroke-linecap="round" stroke-miterlimit="4" stroke-width="3.2" d="M1.333 16c0 0 5.333-10.667 14.667-10.667s14.667 10.667 14.667 10.667-5.333 10.667-14.667 10.667c-9.333 0-14.667-10.667-14.667-10.667z"></path>
<path stroke-linejoin="round" stroke-linecap="round" stroke-miterlimit="4" stroke-width="3.2" d="M16 20c2.209 0 4-1.791 4-4s-1.791-4-4-4c-2.209 0-4 1.791-4 4s1.791 4 4 4z"></path>
</symbol>
<symbol id="icon-check" viewBox="0 0 43 32">
<path fill="#54be96" style="fill: var(--color2, #54be96)" d="M5.333 10.667l-5.333 5.333 16 16 26.667-26.667-5.333-5.333-21.333 21.333-10.667-10.667z"></path>
</symbol>
<symbol id="icon-like" viewBox="0 0 36 32">
  <path
    fill="none"
    stroke="currentColor"
    stroke-linejoin="round"
    stroke-linecap="round"
    stroke-miterlimit="4"
    stroke-width="2.9091"
    d="M31.853 3.994c-0.805-0.805-1.76-1.444-2.812-1.88s-2.179-0.66-3.318-0.66-2.266 0.224-3.318 0.66c-1.052 0.436-2.007 1.075-2.812 1.88l-1.67 1.67-1.67-1.67c-1.626-1.626-3.831-2.539-6.13-2.539s-4.504 0.913-6.13 2.539c-1.626 1.626-2.539 3.831-2.539 6.13s0.913 4.504 2.539 6.13l13.93 13.93 13.93-13.93c0.805-0.805 1.444-1.76 1.88-2.812s0.66-2.179 0.66-3.318c0-1.138-0.224-2.266-0.66-3.318s-1.074-2.007-1.88-2.812z">
  </path>
</symbol>
<symbol id="icon-like-on" viewBox="0 0 36 32">
<path fill="#54be96" style="fill: var(--color2, #54be96); stroke: var(--color2, #54be96)" stroke="#54be96" stroke-linejoin="round" stroke-linecap="round" stroke-miterlimit="4" stroke-width="2.9091" d="M31.853 3.994c-0.805-0.805-1.76-1.444-2.812-1.88s-2.179-0.66-3.318-0.66-2.266 0.224-3.318 0.66c-1.052 0.436-2.007 1.075-2.812 1.88l-1.67 1.67-1.67-1.67c-1.626-1.626-3.831-2.539-6.13-2.539s-4.504 0.913-6.13 2.539c-1.626 1.626-2.539 3.831-2.539 6.13s0.913 4.504 2.539 6.13l13.93 13.93 13.93-13.93c0.805-0.805 1.444-1.76 1.88-2.812s0.66-2.179 0.66-3.318c0-1.138-0.224-2.266-0.66-3.318s-1.074-2.007-1.88-2.812z"></path>
</symbol>
<symbol id="icon-profile" viewBox="0 0 32 32">
<path fill="#fbfbfb" style="fill: var(--color3, #fbfbfb)" d="M16 0c2.122 0 4.157 0.843 5.657 2.343s2.343 3.535 2.343 5.657-0.843 4.157-2.343 5.657c-1.5 1.5-3.535 2.343-5.657 2.343s-4.157-0.843-5.657-2.343c-1.5-1.5-2.343-3.535-2.343-5.657s0.843-4.157 2.343-5.657c1.5-1.5 3.535-2.343 5.657-2.343zM16 20c8.84 0 16 3.58 16 8v4h-32v-4c0-4.42 7.16-8 16-8z"></path>
</symbol>
<symbol id="icon-people" viewBox="0 0 36 32">
<path fill="#fbfbfb" style="fill: var(--color3, #fbfbfb)" d="M24.756 25.545l-0.913 3.406-23.843-6.389 0.913-3.406c0 0 1.825-6.812 13.747-3.618s10.096 10.007 10.096 10.007zM23.13 7.768c0.316-1.179 0.275-2.425-0.117-3.581s-1.119-2.169-2.087-2.912c-0.968-0.743-2.135-1.182-3.353-1.262s-2.432 0.203-3.489 0.814c-1.057 0.61-1.909 1.52-2.449 2.615s-0.743 2.325-0.584 3.535c0.159 1.21 0.674 2.346 1.479 3.263s1.864 1.576 3.042 1.892c1.581 0.424 3.265 0.202 4.683-0.617s2.452-2.166 2.875-3.747zM26.479 18.705c0.83 1.091 1.411 2.35 1.701 3.69s0.285 2.726-0.018 4.063l-0.913 3.406 6.812 1.825 0.913-3.406c0 0 1.657-6.182-8.495-9.578zM28.985 2.948c-1.171-0.321-2.411-0.277-3.556 0.124 0.647 1.723 0.739 3.605 0.263 5.382s-1.497 3.361-2.919 4.53c0.791 0.92 1.844 1.578 3.018 1.886 1.581 0.424 3.265 0.202 4.683-0.617s2.452-2.166 2.875-3.747c0.424-1.581 0.202-3.265-0.617-4.683s-2.166-2.452-3.747-2.875z"></path>
</symbol>
<symbol id="icon-question" viewBox="0 0 19 32">
<path fill="#fbfbfb" style="fill: var(--color3, #fbfbfb)" d="M4.267 9.067c0-2.5 1.913-4.533 4.267-4.533h2.133c2.353 0 4.267 2.033 4.267 4.533v0.255c0 1.544-0.74 2.982-1.96 3.811l-2.813 1.92c-0.826 0.564-1.505 1.34-1.976 2.256s-0.717 1.943-0.717 2.986v0.106c0 1.254 0.953 2.267 2.133 2.267s2.133-1.013 2.133-2.267v-0.099c0-0.581 0.28-1.119 0.733-1.431l2.813-1.92c2.44-1.672 3.92-4.54 3.92-7.629v-0.255c0-5.008-3.82-9.067-8.533-9.067h-2.133c-4.713 0-8.533 4.059-8.533 9.067 0 1.254 0.953 2.267 2.133 2.267s2.133-1.013 2.133-2.267zM9.6 31.733c0.707 0 1.386-0.298 1.886-0.83s0.781-1.252 0.781-2.003c0-0.752-0.281-1.472-0.781-2.003s-1.178-0.83-1.886-0.83-1.386 0.298-1.886 0.83c-0.5 0.531-0.781 1.252-0.781 2.003s0.281 1.472 0.781 2.003 1.178 0.83 1.886 0.83z"></path>
</symbol>
<symbol id="icon-circle" viewBox="0 0 8 8">
<circle cx="4" cy="4" r="4" fill="#54BE96" />
</symbol>
<symbol id="icon-menu" viewBox="0 0 22 16">
<path d="M0 0H21.3333V2.66667H0V0ZM0 6.66667H21.3333V9.33333H0V6.66667ZM0 13.3333H21.3333V16H0V13.3333Z" fill="black"/>
</symbol>
  <symbol id="icon-arrow" viewBox="0 0 14 16">
    <path d="M12.6215 0.860952C12.5447 0.314042 12.039 -0.067006 11.4921 0.00985689L2.57967 1.26242C2.03276 1.33928 1.65171 1.84495 1.72857 2.39186C1.80544 2.93877 2.31111 3.31981 2.85802 3.24295L10.7802 2.12957L11.8935 10.0517C11.9704 10.5986 12.4761 10.9797 13.023 10.9028C13.5699 10.8259 13.9509 10.3203 13.8741 9.77336L12.6215 0.860952ZM1.59722 15.9774L12.4299 1.60194L10.8326 0.398311L-5.14388e-05 14.7737L1.59722 15.9774Z" fill="currentColor"/>
  </symbol>
  <symbol id="icon-arrow-down" viewBox="0 0 12 7" aria-hidden="true">
  <path 
    d="M1 1L6 6L11 1" 
    fill='none'
    stroke='#FBFBFB'
    stroke-width="2"
    stroke-linecap="round"
    stroke-linejoin="round"
  />
</symbol>
<symbol id="icon-arrow-up" viewBox="0 0 12 7" aria-hidden="true">
  <path
    d="M1 6L6 1L11 6"
    fill='none'
    stroke='#FBFBFB'
    stroke-width="2"
    stroke-linecap="round"
    stroke-linejoin="round"
  />
</symbol>
    <symbol id="icon-check" viewBox="0 0 30 30">
    <path fill-rule="evenodd" clip-rule="evenodd" d="M7.5 12.5L5 15L12.5 22.5L25 10L22.5 7.5L12.5 17.5L7.5 12.5Z" fill="currentColor"/>
  </symbol>
  <symbol id="icon-question" viewBox="0 0 10 17">
    <path d="M2.5 5.3125C2.5 4.14043 3.39687 3.1875 4.5 3.1875H5.5C6.60313 3.1875 7.5 4.14043 7.5 5.3125V5.43203C7.5 6.15586 7.15313 6.82988 6.58125 7.21836L5.2625 8.11817C4.8753 8.38268 4.5568 8.74625 4.33622 9.17554C4.11564 9.60483 4.00003 10.0861 4 10.5752V10.625C4 11.2127 4.44688 11.6875 5 11.6875C5.55312 11.6875 6 11.2127 6 10.625V10.5785C6 10.3063 6.13125 10.0539 6.34375 9.90781L7.6625 9.00801C8.80625 8.22442 9.5 6.87969 9.5 5.43203V5.3125C9.5 2.96504 7.70937 1.0625 5.5 1.0625H4.5C2.29063 1.0625 0.5 2.96504 0.5 5.3125C0.5 5.9002 0.946875 6.375 1.5 6.375C2.05313 6.375 2.5 5.9002 2.5 5.3125ZM5 15.9375C5.33152 15.9375 5.64946 15.7976 5.88388 15.5485C6.1183 15.2994 6.25 14.9616 6.25 14.6094C6.25 14.2571 6.1183 13.9193 5.88388 13.6703C5.64946 13.4212 5.33152 13.2813 5 13.2813C4.66848 13.2813 4.35054 13.4212 4.11612 13.6703C3.8817 13.9193 3.75 14.2571 3.75 14.6094C3.75 14.9616 3.8817 15.2994 4.11612 15.5485C4.35054 15.7976 4.66848 15.9375 5 15.9375Z" fill="currentColor"/>
  </symbol>
  <symbol id="icon-people" viewBox="0 0 25 25">
    <g clip-path="url(#clipicon)">
      <path d="M14.2705 16.994L13.8427 18.5907L2.66622 15.5959L3.09404 13.9993C3.09404 13.9993 3.94968 10.806 9.53793 12.3034C15.1262 13.8007 14.2705 16.994 14.2705 16.994ZM13.5086 8.66129C13.6566 8.10866 13.6375 7.52454 13.4536 6.98278C13.2697 6.44102 12.9293 5.96596 12.4754 5.61768C12.0215 5.26939 11.4745 5.06352 10.9036 5.0261C10.3327 4.98869 9.76356 5.1214 9.26809 5.40746C8.77262 5.69352 8.3731 6.12008 8.12006 6.6332C7.86702 7.14632 7.77181 7.72295 7.84649 8.29018C7.92117 8.8574 8.16237 9.38975 8.53959 9.81989C8.91682 10.25 9.41313 10.5587 9.96575 10.7067C10.7068 10.9053 11.4964 10.8013 12.1608 10.4178C12.8252 10.0342 13.31 9.40234 13.5086 8.66129ZM15.0783 13.7879C15.4673 14.2992 15.7395 14.8895 15.8758 15.5174C16.0121 16.1452 16.0092 16.7953 15.8672 17.4219L15.4394 19.0185L18.6327 19.8741L19.0605 18.2775C19.0605 18.2775 19.837 15.3796 15.0783 13.7879ZM16.2531 6.40194C15.7044 6.25164 15.1229 6.27193 14.5861 6.4601C14.8895 7.2676 14.9325 8.1498 14.7093 8.98302C14.486 9.81624 14.0076 10.5587 13.3411 11.1063C13.712 11.5377 14.2054 11.846 14.7557 11.9902C15.4967 12.1888 16.2863 12.0848 16.9507 11.7012C17.6151 11.3176 18.0999 10.6858 18.2985 9.94475C18.4971 9.2037 18.3931 8.41412 18.0095 7.74972C17.6259 7.08531 16.9941 6.6005 16.2531 6.40194Z" fill="currentColor"/>
    </g>
    <defs>
      <clipPath id="clipicon">
        <rect width="19.8356" height="19.8356" transform="translate(5.13385) rotate(15)"/>
      </clipPath>
    </defs>
  </symbol>
    <symbol id="icon-close" viewBox="0 0 32 32" aria-hidden="true">
    <path d="M24 8L8 24" stroke="currentColor" stroke-width="2.5" stroke-linecap="round" stroke-linejoin="round" fill="none"/>
    <path d="M8 8L24 24" stroke="currentColor" stroke-width="2.5" stroke-linecap="round" stroke-linejoin="round" fill="none"/>
  </symbol>
  <symbol id="icon-clock" viewBox="0 0 20 20">
  <g clip-path="url(#clip0_clock)">
    <path
      d="M9.99984 18.3333C14.6022 18.3333 18.3332 14.6024 18.3332 10C18.3332 5.39763 14.6022 1.66667 9.99984 1.66667C5.39746 1.66667 1.6665 5.39763 1.6665 10C1.6665 14.6024 5.39746 18.3333 9.99984 18.3333Z"
      stroke="currentColor"
      stroke-width="1.5"
      stroke-linecap="round"
      stroke-linejoin="round"
    />
    <path
      d="M10 5V10L13.3333 11.6667"
      stroke="currentColor"
      stroke-width="1.5"
      stroke-linecap="round"
      stroke-linejoin="round"
    />
  </g>
  <defs>
    <clipPath id="clip0_clock">
      <rect width="20" height="20" fill="white" />
    </clipPath>
  </defs>
</symbol>
</defs>
</svg>
